<svg width="128" height="128" viewBox="0 0 128 128" fill="none" xmlns="http://www.w3.org/2000/svg">
<path fill-rule="evenodd" clip-rule="evenodd" d="M17.5033 42.617C17.5045 42.6158 17.5057 42.6146 13.2436 38.3216C8.9815 34.0287 8.98296 34.0272 8.98452 34.0257L8.99711 34.0132L9.02207 33.9887L9.09973 33.9128C9.16371 33.8506 9.25201 33.7654 9.36368 33.6592C9.58694 33.4469 9.9041 33.1502 10.3076 32.7848C11.1136 32.055 12.2695 31.0463 13.7143 29.8869C16.5863 27.5822 20.6862 24.6118 25.5173 22.0578C34.8648 17.1162 48.8487 12.8099 61.5721 21.219C68.5703 25.8442 77.0829 24.1225 85.3015 19.7777C89.2535 17.6884 92.704 15.2009 95.1867 13.2086C96.4193 12.2194 97.3918 11.3697 98.0449 10.7784C98.3709 10.4831 98.616 10.2536 98.7725 10.1047C98.8508 10.0303 98.9068 9.97617 98.9396 9.94423L98.97 9.91457C98.9689 9.91574 98.9676 9.917 103.23 14.2099C107.492 18.5029 107.49 18.5043 107.489 18.5059L107.485 18.5094L107.476 18.5183L107.451 18.5429L107.374 18.6188C107.31 18.681 107.221 18.7662 107.11 18.8724C106.886 19.0847 106.569 19.3814 106.166 19.7467C105.36 20.4766 104.204 21.4852 102.759 22.6446C99.8871 24.9494 95.7871 27.9198 90.9561 30.4737C81.6085 35.4154 67.6246 39.7216 54.9012 31.3125C47.9031 26.6874 39.3905 28.4091 31.1719 32.7539C27.2198 34.8432 23.7693 37.3307 21.2866 39.323C20.0541 40.3121 19.0815 41.1618 18.4285 41.7532C18.1024 42.0484 17.8574 42.278 17.7008 42.4269C17.6226 42.5013 17.5666 42.5554 17.5337 42.5873L17.502 42.6183L17.5033 42.617ZM17.4994 42.6209C17.4987 42.6215 17.4996 42.6206 17.502 42.6183L17.4994 42.6209Z" fill="#EE6767"/>
<path fill-rule="evenodd" clip-rule="evenodd" d="M20.1713 54.094C20.1724 54.0929 20.1737 54.0916 15.9116 49.7987C11.6495 45.5057 11.6509 45.5043 11.6525 45.5028L11.6651 45.4903L11.69 45.4657L11.7677 45.3898C11.8317 45.3276 11.92 45.2424 12.0317 45.1363C12.2549 44.924 12.5721 44.6272 12.9755 44.2619C13.7816 43.532 14.9375 42.5234 16.3822 41.364C19.2542 39.0592 23.3542 36.0889 28.1852 33.5349C37.5328 28.5932 51.5167 24.287 64.2401 32.6961C71.2382 37.3213 79.7508 35.5996 87.9695 31.2547C91.9215 29.1655 95.372 26.6779 97.8547 24.6856C99.0873 23.6965 100.06 22.8468 100.713 22.2554C101.039 21.9602 101.284 21.7306 101.44 21.5817C101.519 21.5073 101.575 21.4532 101.608 21.4213L101.638 21.3916C101.637 21.3928 101.636 21.394 105.898 25.687C110.16 29.9799 110.158 29.9814 110.157 29.9829L110.144 29.9954L110.119 30.02L110.042 30.0958C109.978 30.158 109.889 30.2432 109.778 30.3494C109.554 30.5617 109.237 30.8584 108.834 31.2238C108.028 31.9536 106.872 32.9623 105.427 34.1217C102.555 36.4264 98.4551 39.3968 93.624 41.9508C84.2765 46.8924 70.2926 51.1987 57.5692 42.7896C50.571 38.1644 42.0584 39.8861 33.8398 44.2309C29.8878 46.3202 26.4373 48.8077 23.9546 50.8001C22.722 51.7892 21.7495 52.6389 21.0964 53.2302C20.7704 53.5255 20.5253 53.7551 20.3688 53.9039C20.2905 53.9783 20.2345 54.0324 20.2017 54.0644L20.1699 54.0954L20.1713 54.094ZM20.1673 54.0979C20.1667 54.0986 20.1676 54.0977 20.1699 54.0954L20.1673 54.0979Z" fill="#FFBB17"/>
<path fill-rule="evenodd" clip-rule="evenodd" d="M22.8395 65.571C22.8407 65.5699 22.8419 65.5686 18.5798 61.2757C14.3177 56.9827 14.3191 56.9813 14.3207 56.9797L14.3333 56.9673L14.3583 56.9427L14.4359 56.8668C14.4999 56.8046 14.5882 56.7194 14.6999 56.6132C14.9231 56.4009 15.2403 56.1042 15.6438 55.7389C16.4498 55.009 17.6057 54.0004 19.0505 52.841C21.9225 50.5362 26.0224 47.5659 30.8535 45.0119C40.201 40.0702 54.1849 35.764 66.9083 44.1731C73.9065 48.7982 82.4191 47.0766 90.6377 42.7317C94.5897 40.6424 98.0402 38.1549 100.523 36.1626C101.755 35.1735 102.728 34.3238 103.381 33.7324C103.707 33.4372 103.952 33.2076 104.109 33.0587C104.187 32.9843 104.243 32.9302 104.276 32.8983L104.306 32.8686C104.305 32.8698 104.304 32.871 108.566 37.164C112.828 41.4569 112.827 41.4584 112.825 41.4599L112.812 41.4724L112.787 41.497L112.71 41.5728C112.646 41.635 112.558 41.7202 112.446 41.8264C112.223 42.0387 111.905 42.3354 111.502 42.7008C110.696 43.4306 109.54 44.4393 108.095 45.5987C105.223 47.9034 101.123 50.8738 96.2922 53.4278C86.9447 58.3694 72.9608 62.6757 60.2374 54.2666C53.2393 49.6414 44.7267 51.3631 36.508 55.7079C32.556 57.7972 29.1055 60.2847 26.6228 62.2771C25.3902 63.2662 24.4177 64.1159 23.7647 64.7072C23.4386 65.0025 23.1936 65.2321 23.037 65.3809C22.9588 65.4553 22.9027 65.5094 22.8699 65.5414L22.8381 65.5724L22.8395 65.571ZM22.8355 65.5749C22.8349 65.5756 22.8358 65.5747 22.8381 65.5724L22.8355 65.5749Z" fill="#FFDB1B"/>
<path fill-rule="evenodd" clip-rule="evenodd" d="M25.5076 77.048C25.5088 77.0469 25.51 77.0456 21.2479 72.7527C16.9858 68.4597 16.9872 68.4583 16.9888 68.4567L17.0014 68.4443L17.0263 68.4197L17.104 68.3438C17.168 68.2816 17.2563 68.1964 17.368 68.0902C17.5912 67.8779 17.9084 67.5812 18.3119 67.2159C19.1179 66.486 20.2738 65.4774 21.7186 64.3179C24.5906 62.0132 28.6905 59.0428 33.5216 56.4889C42.8691 51.5472 56.853 47.241 69.5764 55.6501C76.5745 60.2752 85.0871 58.5535 93.3058 54.2087C97.2578 52.1194 100.708 49.6319 103.191 47.6396C104.424 46.6505 105.396 45.8008 106.049 45.2094C106.375 44.9142 106.62 44.6846 106.777 44.5357C106.855 44.4613 106.911 44.4072 106.944 44.3753L106.974 44.3456C106.973 44.3468 106.972 44.348 111.234 48.641C115.496 52.9339 115.495 52.9354 115.493 52.9369L115.481 52.9494L115.456 52.9739L115.378 53.0498C115.314 53.112 115.226 53.1972 115.114 53.3034C114.891 53.5157 114.574 53.8124 114.17 54.1778C113.364 54.9076 112.208 55.9163 110.763 57.0757C107.891 59.3804 103.791 62.3508 98.9603 64.9048C89.6128 69.8464 75.6289 74.1527 62.9055 65.7436C55.9073 61.1184 47.3947 62.8401 39.1761 67.1849C35.2241 69.2742 31.7736 71.7617 29.2909 73.754C28.0583 74.7432 27.0858 75.5929 26.4327 76.1842C26.1067 76.4794 25.8616 76.709 25.7051 76.8579C25.6269 76.9323 25.5708 76.9864 25.538 77.0184L25.5062 77.0494L25.5076 77.048ZM25.5036 77.0519C25.503 77.0525 25.5039 77.0517 25.5062 77.0494L25.5036 77.0519Z" fill="#00CB99"/>
<path fill-rule="evenodd" clip-rule="evenodd" d="M28.1753 88.5251C28.1765 88.5239 28.1777 88.5227 23.9156 84.2297C19.6535 79.9368 19.655 79.9353 19.6565 79.9338L19.6691 79.9213L19.6941 79.8967L19.7717 79.8209C19.8357 79.7587 19.924 79.6735 20.0357 79.5673C20.2589 79.355 20.5761 79.0583 20.9796 78.6929C21.7856 77.9631 22.9415 76.9544 24.3863 75.795C27.2583 73.4903 31.3582 70.5199 36.1893 67.9659C45.5368 63.0243 59.5207 58.718 72.2441 67.1271C79.2423 71.7523 87.7549 70.0306 95.9735 65.6858C99.9255 63.5965 103.376 61.109 105.859 59.1166C107.091 58.1275 108.064 57.2778 108.717 56.6865C109.043 56.3912 109.288 56.1616 109.445 56.0128C109.523 55.9384 109.579 55.8843 109.612 55.8523L109.642 55.8227C109.641 55.8238 109.64 55.8251 113.902 60.118C118.164 64.411 118.162 64.4124 118.161 64.4139L118.148 64.4264L118.123 64.451L118.046 64.5269C117.982 64.5891 117.893 64.6743 117.782 64.7804C117.558 64.9927 117.241 65.2895 116.838 65.6548C116.032 66.3847 114.876 67.3933 113.431 68.5527C110.559 70.8575 106.459 73.8278 101.628 76.3818C92.2805 81.3235 78.2966 85.6297 65.5732 77.2206C58.5751 72.5954 50.0625 74.3171 41.8438 78.662C37.8918 80.7512 34.4413 83.2388 31.9586 85.2311C30.726 86.2202 29.7535 87.0699 29.1005 87.6613C28.7744 87.9565 28.5294 88.1861 28.3728 88.335C28.2946 88.4094 28.2386 88.4635 28.2057 88.4954L28.174 88.5264L28.1753 88.5251ZM28.1714 88.529C28.1707 88.5296 28.1716 88.5287 28.174 88.5264L28.1714 88.529Z" fill="#459FF2"/>
<path fill-rule="evenodd" clip-rule="evenodd" d="M30.8438 100.002C30.8449 100.001 30.8462 99.9997 26.5841 95.7068C22.322 91.4138 22.3234 91.4124 22.325 91.4108L22.3376 91.3984L22.3625 91.3738L22.4402 91.2979C22.5042 91.2357 22.5925 91.1505 22.7041 91.0443C22.9274 90.832 23.2446 90.5353 23.648 90.17C24.454 89.4401 25.6099 88.4315 27.0547 87.2721C29.9267 84.9673 34.0267 81.9969 38.8577 79.443C48.2053 74.5013 62.1892 70.1951 74.9126 78.6042C81.9107 83.2293 90.4233 81.5076 98.6419 77.1628C102.594 75.0735 106.044 72.586 108.527 70.5937C109.76 69.6046 110.732 68.7549 111.385 68.1635C111.711 67.8683 111.956 67.6387 112.113 67.4898C112.191 67.4154 112.247 67.3613 112.28 67.3294L112.31 67.2997C112.309 67.3009 112.308 67.3021 116.57 71.5951C120.832 75.888 120.831 75.8895 120.829 75.891L120.817 75.9035L120.792 75.928L120.714 76.0039C120.65 76.0661 120.562 76.1513 120.45 76.2575C120.227 76.4698 119.91 76.7665 119.506 77.1319C118.7 77.8617 117.544 78.8704 116.1 80.0298C113.228 82.3345 109.128 85.3049 104.297 87.8589C94.949 92.8005 80.9651 97.1068 68.2417 88.6977C61.2435 84.0725 52.7309 85.7942 44.5123 90.139C40.5603 92.2283 37.1098 94.7158 34.6271 96.7081C33.3945 97.6973 32.422 98.547 31.7689 99.1383C31.4429 99.4336 31.1978 99.6631 31.0413 99.812C30.963 99.8864 30.907 99.9405 30.8742 99.9725L30.8424 100.003L30.8438 100.002ZM30.8398 100.006C30.8392 100.007 30.8401 100.006 30.8424 100.003L30.8398 100.006Z" fill="#9857D6"/>
<path fill-rule="evenodd" clip-rule="evenodd" d="M33.6893 123.682C31.8181 124.167 29.9082 123.043 29.4234 121.172L6.10134 31.1436C5.61659 29.2724 6.74056 27.3625 8.61179 26.8777C10.483 26.393 12.3929 27.517 12.8777 29.3882L36.1998 119.416C36.6845 121.288 35.5605 123.198 33.6893 123.682Z" fill="#4B4D52"/>
<circle cx="96" cy="96" r="29.5" fill="#FFDB1B" stroke="white" stroke-width="5"/>
<path d="M81 92.9375V98.5625C81 99.0802 81.4198 99.5 81.9375 99.5H110.062C110.58 99.5 111 99.0802 111 98.5625V92.9375C111 92.4198 110.58 92 110.062 92H81.9375C81.4198 92 81 92.4198 81 92.9375Z" fill="white"/>
</svg>
